<?xml version="1.0" encoding="utf-8"?>
<!-- Generator: Adobe Illustrator 27.5.0, SVG Export Plug-In . SVG Version: 6.00 Build 0)  -->
<svg version="1.1" xmlns="http://www.w3.org/2000/svg" xmlns:xlink="http://www.w3.org/1999/xlink" x="0px" y="0px"
	 viewBox="0 0 750 500" style="enable-background:new 0 0 750 500;" xml:space="preserve">
<g id="BACKGROUND">
	<radialGradient id="SVGID_1_" cx="375" cy="250" r="318.6887" gradientUnits="userSpaceOnUse">
		<stop  offset="0" style="stop-color:#1872CF"/>
		<stop  offset="1" style="stop-color:#004E9F"/>
	</radialGradient>
	<rect style="fill:url(#SVGID_1_);" width="750" height="500"/>
</g>
<g id="OBJECT">
	<g>
		<defs>
			<rect id="SVGID_00000012465543501932423020000006625826057123234487_" width="750" height="500"/>
		</defs>
		<clipPath id="SVGID_00000106132812981104545990000005003125942377320600_">
			<use xlink:href="#SVGID_00000012465543501932423020000006625826057123234487_"  style="overflow:visible;"/>
		</clipPath>
		
			<radialGradient id="SVGID_00000039829486863208180780000005545327483436738705_" cx="375" cy="250" r="397.4347" gradientUnits="userSpaceOnUse">
			<stop  offset="0" style="stop-color:#1872CF"/>
			<stop  offset="1" style="stop-color:#1872CF;stop-opacity:0"/>
		</radialGradient>
		
			<path style="clip-path:url(#SVGID_00000106132812981104545990000005003125942377320600_);fill:url(#SVGID_00000039829486863208180780000005545327483436738705_);" d="
			M831.149,262.604v-98.461l-320.911,65.781l7.254-23.879l-134.298,41.426c-0.277-0.899-0.704-1.731-1.242-2.477l86.1-61.982
			l5.712,24.519L776.339,32.841l-49.23-85.269L482.082,164.995l-5.657-24.307l-95.599,103.033c-0.677-0.629-1.453-1.149-2.306-1.534
			l43.573-96.726l17.206,18.378L613.99-138.735l-85.269-49.23L425.233,122.843l-17.053-18.222l-31.274,137.025
			c-0.614-0.14-1.25-0.22-1.907-0.22c-0.29,0-0.576,0.015-0.859,0.043l-10.627-105.548l24.09,7.313v-349.382h-98.461l65.781,320.911
			l-23.879-7.254l41.426,134.298c-0.899,0.277-1.731,0.704-2.477,1.242l-61.982-86.1l24.519-5.712L157.841-151.339l-85.269,49.23
			l217.424,245.026l-24.307,5.657l103.033,95.599c-0.629,0.677-1.149,1.453-1.534,2.306l-96.726-43.573l18.378-17.206L-13.735,11.01
			l-49.23,85.269l310.808,103.487l-18.222,17.053l137.025,31.274c-0.14,0.614-0.22,1.25-0.22,1.907c0,0.29,0.015,0.576,0.043,0.859
			l-105.548,10.627l7.313-24.09H-81.149v98.461l320.911-65.781l-7.254,23.879l134.298-41.426c0.277,0.899,0.704,1.731,1.242,2.477
			l-86.1,61.982l-5.712-24.519L-26.339,467.159l49.23,85.269l245.026-217.424l5.657,24.307l95.599-103.033
			c0.677,0.629,1.453,1.149,2.306,1.534l-43.573,96.726l-17.206-18.378L136.01,638.735l85.269,49.23l103.487-310.808l17.053,18.222
			l31.274-137.025c0.614,0.14,1.25,0.22,1.907,0.22c0.29,0,0.576-0.015,0.859-0.043l10.627,105.548l-24.09-7.313v349.382h98.461
			l-65.781-320.911l23.879,7.254l-41.426-134.298c0.899-0.277,1.731-0.704,2.477-1.242l61.982,86.1l-24.519,5.712l174.691,302.574
			l85.269-49.23L460.005,357.082l24.307-5.657l-103.033-95.599c0.629-0.677,1.149-1.453,1.534-2.306l96.726,43.573l-18.378,17.206
			L763.735,488.99l49.23-85.269L502.157,300.233l18.222-17.053l-137.025-31.274c0.14-0.614,0.22-1.25,0.22-1.907
			c0-0.29-0.015-0.576-0.043-0.859l105.548-10.627l-7.313,24.09H831.149z"/>
	</g>
	<g style="opacity:0.38;">
		<defs>
			<rect id="SVGID_00000084531214455569796380000014800066613901493927_" style="opacity:0.38;" width="750" height="500"/>
		</defs>
		<clipPath id="SVGID_00000167368361504241913370000016919645169474680222_">
			<use xlink:href="#SVGID_00000084531214455569796380000014800066613901493927_"  style="overflow:visible;"/>
		</clipPath>
		<g style="opacity:0.39;clip-path:url(#SVGID_00000167368361504241913370000016919645169474680222_);">
			<g>
				
					<circle style="fill:none;stroke:#1B1A28;stroke-width:6;stroke-linecap:round;stroke-linejoin:round;stroke-dasharray:0,9.9827,0,9.9827,0,9.9827;" cx="375" cy="250" r="452.787"/>
			</g>
			<g>
				
					<circle style="fill:none;stroke:#1B1A28;stroke-width:5.918;stroke-linecap:round;stroke-linejoin:round;stroke-dasharray:0,10.0337,0,10.0337,0,10.0337;" cx="375" cy="250" r="445.52"/>
			</g>
			<g>
				
					<circle style="fill:none;stroke:#1B1A28;stroke-width:5.8361;stroke-linecap:round;stroke-linejoin:round;stroke-dasharray:0,9.9773,0,9.9773,0,9.9773;" cx="375" cy="250" r="438.254"/>
			</g>
			<g>
				
					<circle style="fill:none;stroke:#1B1A28;stroke-width:5.7541;stroke-linecap:round;stroke-linejoin:round;stroke-dasharray:0,10.0299,0,10.0299,0,10.0299;" cx="375" cy="250" r="430.987"/>
			</g>
			<g>
				
					<circle style="fill:none;stroke:#1B1A28;stroke-width:5.6721;stroke-linecap:round;stroke-linejoin:round;stroke-dasharray:0,9.9716,0,9.9716,0,9.9716;" cx="375" cy="250" r="423.72"/>
			</g>
			<g>
				
					<circle style="fill:none;stroke:#1B1A28;stroke-width:5.5902;stroke-linecap:round;stroke-linejoin:round;stroke-dasharray:0,10.0259,0,10.0259,0,10.0259;" cx="375" cy="250" r="416.453"/>
			</g>
			<g>
				
					<circle style="fill:none;stroke:#1B1A28;stroke-width:5.5082;stroke-linecap:round;stroke-linejoin:round;stroke-dasharray:0,9.9655,0,9.9655,0,9.9655;" cx="375" cy="250" r="409.186"/>
			</g>
			<g>
				
					<circle style="fill:none;stroke:#1B1A28;stroke-width:5.4262;stroke-linecap:round;stroke-linejoin:round;stroke-dasharray:0,10.0216,0,10.0216,0,10.0216;" cx="375" cy="250" r="401.919"/>
			</g>
			<g>
				
					<circle style="fill:none;stroke:#1B1A28;stroke-width:5.3443;stroke-linecap:round;stroke-linejoin:round;stroke-dasharray:0,9.9589,0,9.9589,0,9.9589;" cx="375" cy="250" r="394.653"/>
			</g>
			<g>
				
					<circle style="fill:none;stroke:#1B1A28;stroke-width:5.2623;stroke-linecap:round;stroke-linejoin:round;stroke-dasharray:0,10.0169,0,10.0169,0,10.0169;" cx="375" cy="250" r="387.386"/>
			</g>
			<g>
				
					<circle style="fill:none;stroke:#1B1A28;stroke-width:5.1803;stroke-linecap:round;stroke-linejoin:round;stroke-dasharray:0,9.9519,0,9.9519,0,9.9519;" cx="375" cy="250" r="380.119"/>
			</g>
			<g>
				
					<circle style="fill:none;stroke:#1B1A28;stroke-width:5.0984;stroke-linecap:round;stroke-linejoin:round;stroke-dasharray:0,10.0119,0,10.0119,0,10.0119;" cx="375" cy="250" r="372.852"/>
			</g>
			<g>
				
					<circle style="fill:none;stroke:#1B1A28;stroke-width:5.0164;stroke-linecap:round;stroke-linejoin:round;stroke-dasharray:0,9.9443,0,9.9443,0,9.9443;" cx="375" cy="250" r="365.585"/>
			</g>
			<g>
				
					<circle style="fill:none;stroke:#1B1A28;stroke-width:4.9344;stroke-linecap:round;stroke-linejoin:round;stroke-dasharray:0,10.0065,0,10.0065,0,10.0065;" cx="375" cy="250" r="358.318"/>
			</g>
			<g>
				
					<circle style="fill:none;stroke:#1B1A28;stroke-width:4.8525;stroke-linecap:round;stroke-linejoin:round;stroke-dasharray:0,9.9361,0,9.9361,0,9.9361;" cx="375" cy="250" r="351.052"/>
			</g>
			<g>
				
					<circle style="fill:none;stroke:#1B1A28;stroke-width:4.7705;stroke-linecap:round;stroke-linejoin:round;stroke-dasharray:0,10.0007,0,10.0007,0,10.0007;" cx="375" cy="250" r="343.785"/>
			</g>
			<g>
				
					<circle style="fill:none;stroke:#1B1A28;stroke-width:4.6885;stroke-linecap:round;stroke-linejoin:round;stroke-dasharray:0,10.069,0,10.069,0,10.069;" cx="375" cy="250" r="336.518"/>
			</g>
			<g>
				
					<circle style="fill:none;stroke:#1B1A28;stroke-width:4.6066;stroke-linecap:round;stroke-linejoin:round;stroke-dasharray:0,9.9943,0,9.9943,0,9.9943;" cx="375" cy="250" r="329.251"/>
			</g>
			<g>
				
					<circle style="fill:none;stroke:#1B1A28;stroke-width:4.5246;stroke-linecap:round;stroke-linejoin:round;stroke-dasharray:0,10.0655,0,10.0655,0,10.0655;" cx="375" cy="250" r="321.984"/>
			</g>
			<g>
				
					<circle style="fill:none;stroke:#1B1A28;stroke-width:4.4426;stroke-linecap:round;stroke-linejoin:round;stroke-dasharray:0,9.9874,0,9.9874,0,9.9874;" cx="375" cy="250" r="314.717"/>
			</g>
			<g>
				
					<circle style="fill:none;stroke:#1B1A28;stroke-width:4.3607;stroke-linecap:round;stroke-linejoin:round;stroke-dasharray:0,10.0617,0,10.0617,0,10.0617;" cx="375" cy="250" r="307.451"/>
			</g>
			<g>
				
					<circle style="fill:none;stroke:#1B1A28;stroke-width:4.2787;stroke-linecap:round;stroke-linejoin:round;stroke-dasharray:0,9.9798,0,9.9798,0,9.9798;" cx="375" cy="250" r="300.184"/>
			</g>
			<g>
				
					<circle style="fill:none;stroke:#1B1A28;stroke-width:4.1967;stroke-linecap:round;stroke-linejoin:round;stroke-dasharray:0,10.0575,0,10.0575,0,10.0575;" cx="375" cy="250" r="292.917"/>
			</g>
			<g>
				
					<circle style="fill:none;stroke:#1B1A28;stroke-width:4.1148;stroke-linecap:round;stroke-linejoin:round;stroke-dasharray:0,9.9715,0,9.9715,0,9.9715;" cx="375" cy="250" r="285.65"/>
			</g>
			<g>
				
					<circle style="fill:none;stroke:#1B1A28;stroke-width:4.0328;stroke-linecap:round;stroke-linejoin:round;stroke-dasharray:0,10.0529,0,10.0529,0,10.0529;" cx="375" cy="250" r="278.383"/>
			</g>
			<g>
				
					<circle style="fill:none;stroke:#1B1A28;stroke-width:3.9508;stroke-linecap:round;stroke-linejoin:round;stroke-dasharray:0,9.9622,0,9.9622,0,9.9622;" cx="375" cy="250" r="271.117"/>
			</g>
			<g>
				
					<circle style="fill:none;stroke:#1B1A28;stroke-width:3.8689;stroke-linecap:round;stroke-linejoin:round;stroke-dasharray:0,10.0478,0,10.0478,0,10.0478;" cx="375" cy="250" r="263.85"/>
			</g>
			<g>
				
					<circle style="fill:none;stroke:#1B1A28;stroke-width:3.7869;stroke-linecap:round;stroke-linejoin:round;stroke-dasharray:0,9.952,0,9.952,0,9.952;" cx="375" cy="250" r="256.583"/>
			</g>
			<g>
				
					<circle style="fill:none;stroke:#1B1A28;stroke-width:3.7049;stroke-linecap:round;stroke-linejoin:round;stroke-dasharray:0,10.0421,0,10.0421,0,10.0421;" cx="375" cy="250" r="249.316"/>
			</g>
			<g>
				
					<circle style="fill:none;stroke:#1B1A28;stroke-width:3.623;stroke-linecap:round;stroke-linejoin:round;stroke-dasharray:0,9.9405,0,9.9405,0,9.9405;" cx="375" cy="250" r="242.049"/>
			</g>
			<g>
				
					<circle style="fill:none;stroke:#1B1A28;stroke-width:3.541;stroke-linecap:round;stroke-linejoin:round;stroke-dasharray:0,10.0356,0,10.0356,0,10.0356;" cx="375" cy="250" r="234.782"/>
			</g>
			<g>
				
					<circle style="fill:none;stroke:#1B1A28;stroke-width:3.459;stroke-linecap:round;stroke-linejoin:round;stroke-dasharray:0,9.9276,0,9.9276,0,9.9276;" cx="375" cy="250" r="227.516"/>
			</g>
			<g>
				
					<circle style="fill:none;stroke:#1B1A28;stroke-width:3.377;stroke-linecap:round;stroke-linejoin:round;stroke-dasharray:0,10.0284,0,10.0284,0,10.0284;" cx="375" cy="250" r="220.249"/>
			</g>
			<g>
				
					<circle style="fill:none;stroke:#1B1A28;stroke-width:3.2951;stroke-linecap:round;stroke-linejoin:round;stroke-dasharray:0,9.913,0,9.913,0,9.913;" cx="375" cy="250" r="212.982"/>
			</g>
			<g>
				
					<circle style="fill:none;stroke:#1B1A28;stroke-width:3.2131;stroke-linecap:round;stroke-linejoin:round;stroke-dasharray:0,10.0201,0,10.0201,0,10.0201;" cx="375" cy="250" r="205.715"/>
			</g>
			<g>
				
					<circle style="fill:none;stroke:#1B1A28;stroke-width:3.1311;stroke-linecap:round;stroke-linejoin:round;stroke-dasharray:0,9.8963,0,9.8963,0,9.8963;" cx="375" cy="250" r="198.448"/>
			</g>
			<g>
				
					<circle style="fill:none;stroke:#1B1A28;stroke-width:3.0492;stroke-linecap:round;stroke-linejoin:round;stroke-dasharray:0,10.0106,0,10.0106,0,10.0106;" cx="375" cy="250" r="191.181"/>
			</g>
			<g>
				
					<circle style="fill:none;stroke:#1B1A28;stroke-width:2.9672;stroke-linecap:round;stroke-linejoin:round;stroke-dasharray:0,9.8771,0,9.8771,0,9.8771;" cx="375" cy="250" r="183.915"/>
			</g>
			<g>
				
					<circle style="fill:none;stroke:#1B1A28;stroke-width:2.8852;stroke-linecap:round;stroke-linejoin:round;stroke-dasharray:0,9.9996,0,9.9996,0,9.9996;" cx="375" cy="250" r="176.648"/>
			</g>
			<g>
				
					<circle style="fill:none;stroke:#1B1A28;stroke-width:2.8033;stroke-linecap:round;stroke-linejoin:round;stroke-dasharray:0,10.1361,0,10.1361,0,10.1361;" cx="375" cy="250" r="169.381"/>
			</g>
			<g>
				
					<circle style="fill:none;stroke:#1B1A28;stroke-width:2.7213;stroke-linecap:round;stroke-linejoin:round;stroke-dasharray:0,9.9866,0,9.9866,0,9.9866;" cx="375" cy="250" r="162.114"/>
			</g>
			<g>
				
					<circle style="fill:none;stroke:#1B1A28;stroke-width:2.6393;stroke-linecap:round;stroke-linejoin:round;stroke-dasharray:0,10.1351,0,10.1351,0,10.1351;" cx="375" cy="250" r="154.847"/>
			</g>
			<g>
				
					<circle style="fill:none;stroke:#1B1A28;stroke-width:2.5574;stroke-linecap:round;stroke-linejoin:round;stroke-dasharray:0,9.9711,0,9.9711,0,9.9711;" cx="375" cy="250" r="147.58"/>
			</g>
			<g>
				
					<circle style="fill:none;stroke:#1B1A28;stroke-width:2.4754;stroke-linecap:round;stroke-linejoin:round;stroke-dasharray:0,10.1339,0,10.1339,0,10.1339;" cx="375" cy="250" r="140.314"/>
			</g>
			<g>
				
					<circle style="fill:none;stroke:#1B1A28;stroke-width:2.3934;stroke-linecap:round;stroke-linejoin:round;stroke-dasharray:0,9.9523,0,9.9523,0,9.9523;" cx="375" cy="250" r="133.047"/>
			</g>
			<g>
				
					<circle style="fill:none;stroke:#1B1A28;stroke-width:2.3115;stroke-linecap:round;stroke-linejoin:round;stroke-dasharray:0,10.1324,0,10.1324,0,10.1324;" cx="375" cy="250" r="125.78"/>
			</g>
			<g>
				
					<circle style="fill:none;stroke:#1B1A28;stroke-width:2.2295;stroke-linecap:round;stroke-linejoin:round;stroke-dasharray:0,9.9289,0,9.9289,0,9.9289;" cx="375" cy="250" r="118.513"/>
			</g>
			<g>
				
					<circle style="fill:none;stroke:#1B1A28;stroke-width:2.1475;stroke-linecap:round;stroke-linejoin:round;stroke-dasharray:0,10.1306,0,10.1306,0,10.1306;" cx="375" cy="250" r="111.246"/>
			</g>
			<g>
				
					<circle style="fill:none;stroke:#1B1A28;stroke-width:2.0656;stroke-linecap:round;stroke-linejoin:round;stroke-dasharray:0,9.8992,0,9.8992,0,9.8992;" cx="375" cy="250" r="103.979"/>
			</g>
			<g>
				
					<circle style="fill:none;stroke:#1B1A28;stroke-width:1.9836;stroke-linecap:round;stroke-linejoin:round;stroke-dasharray:0,10.1281,0,10.1281,0,10.1281;" cx="375" cy="250" r="96.713"/>
			</g>
			<g>
				
					<circle style="fill:none;stroke:#1B1A28;stroke-width:1.9016;stroke-linecap:round;stroke-linejoin:round;stroke-dasharray:0,9.8601,0,9.8601,0,9.8601;" cx="375" cy="250" r="89.446"/>
			</g>
			<g>
				
					<circle style="fill:none;stroke:#1B1A28;stroke-width:1.8197;stroke-linecap:round;stroke-linejoin:round;stroke-dasharray:0,10.1248,0,10.1248,0,10.1248;" cx="375" cy="250" r="82.179"/>
			</g>
			<g>
				
					<circle style="fill:none;stroke:#1B1A28;stroke-width:1.7377;stroke-linecap:round;stroke-linejoin:round;stroke-dasharray:0,9.8064,0,9.8064,0,9.8064;" cx="375" cy="250" r="74.912"/>
			</g>
			<g>
				
					<circle style="fill:none;stroke:#1B1A28;stroke-width:1.6557;stroke-linecap:round;stroke-linejoin:round;stroke-dasharray:0,10.1194,0,10.1194,0,10.1194;" cx="375" cy="250" r="67.645"/>
			</g>
			<g>
				
					<circle style="fill:none;stroke:#1B1A28;stroke-width:1.5738;stroke-linecap:round;stroke-linejoin:round;stroke-dasharray:0,9.7257,0,9.7257,0,9.7257;" cx="375" cy="250" r="60.378"/>
			</g>
			<g>
				
					<circle style="fill:none;stroke:#1B1A28;stroke-width:1.4918;stroke-linecap:round;stroke-linejoin:round;stroke-dasharray:0,10.1098,0,10.1098,0,10.1098;" cx="375" cy="250" r="53.112"/>
			</g>
			<g>
				
					<circle style="fill:none;stroke:#1B1A28;stroke-width:1.4098;stroke-linecap:round;stroke-linejoin:round;stroke-dasharray:0,9.5992,0,9.5992,0,9.5992;" cx="375" cy="250" r="45.845"/>
			</g>
			<g>
				
					<circle style="fill:none;stroke:#1B1A28;stroke-width:1.3279;stroke-linecap:round;stroke-linejoin:round;stroke-dasharray:0,10.097,0,10.097,0,10.097;" cx="375" cy="250" r="38.578"/>
			</g>
			<g>
				
					<circle style="fill:none;stroke:#1B1A28;stroke-width:1.2459;stroke-linecap:round;stroke-linejoin:round;stroke-dasharray:0,9.3658,0,9.3658,0,9.3658;" cx="375" cy="250" r="31.311"/>
			</g>
			<g>
				
					<circle style="fill:none;stroke:#1B1A28;stroke-width:1.1639;stroke-linecap:round;stroke-linejoin:round;stroke-dasharray:0,10.069,0,10.069,0,10.069;" cx="375" cy="250" r="24.044"/>
			</g>
			<g>
				
					<circle style="fill:none;stroke:#1B1A28;stroke-width:1.082;stroke-linecap:round;stroke-linejoin:round;stroke-dasharray:0,8.7824,0,8.7824,0,8.7824;" cx="375" cy="250" r="16.777"/>
			</g>
			<g>
				
					<circle style="fill:none;stroke:#1B1A28;stroke-linecap:round;stroke-linejoin:round;stroke-dasharray:0,9.9569,0,9.9569,0,9.9569;" cx="375" cy="250" r="9.511"/>
			</g>
		</g>
	</g>
	<g>
		<defs>
			<rect id="SVGID_00000000209409846675609370000002082885369030502032_" width="750" height="500"/>
		</defs>
		<clipPath id="SVGID_00000088107654976131285860000001251843396521617823_">
			<use xlink:href="#SVGID_00000000209409846675609370000002082885369030502032_"  style="overflow:visible;"/>
		</clipPath>
		<g style="clip-path:url(#SVGID_00000088107654976131285860000001251843396521617823_);">
			<polygon style="fill:#1781E2;" points="101.04,35.299 10.892,-47.037 -12.312,-21.633 85.993,37.021 78.493,41.473 
				125.618,63.712 93.476,39.791 			"/>
			<polygon style="fill:#002E6B;" points="321.736,60.887 285.384,-55.666 252.538,-45.421 307.872,54.789 299.152,54.854 
				328.641,97.815 312.939,60.954 			"/>
			<polygon style="fill:#002255;" points="371.749,34.813 371.064,-87.275 336.658,-87.082 360.274,24.928 351.916,22.44 
				367.554,72.147 363.317,32.305 			"/>
			<polygon style="fill:#1781E2;" points="235.588,16.515 181.759,-93.068 150.877,-77.898 220.952,12.62 212.345,14.024 
				248.085,51.944 226.906,17.933 			"/>
			<polygon style="fill:#002255;" points="163.901,43.034 83.658,-48.982 57.727,-26.368 148.755,43.041 140.8,46.615 
				231.625,117.675 155.877,46.641 			"/>
			<polygon style="fill:#002255;" points="60.016,202.662 -57.597,169.902 -66.829,203.047 47.367,210.993 42.686,218.351 
				94.775,216.915 55.295,210.085 			"/>
			<polygon style="fill:#1781E2;" points="109.043,179.817 -4.103,133.949 -17.029,165.835 95.532,186.663 90.048,193.443 
				203.173,215.836 103.512,186.659 			"/>
			<polygon style="fill:#002E6B;" points="47.939,81.512 -17.295,40.005 -28.992,58.389 38.741,84.231 34.55,87.828 
				102.455,114.708 43.712,85.141 			"/>
		</g>
		<g style="clip-path:url(#SVGID_00000088107654976131285860000001251843396521617823_);">
			<polygon style="fill:#002E6B;" points="101.04,464.701 10.892,547.037 -12.312,521.633 85.993,462.979 78.493,458.527 
				125.618,436.288 93.476,460.209 			"/>
			<polygon style="fill:#002255;" points="163.901,456.966 83.658,548.982 57.727,526.368 148.755,456.959 140.8,453.385 
				231.625,382.325 155.877,453.359 			"/>
			<polygon style="fill:#1781E2;" points="60.016,297.338 -57.597,330.098 -66.829,296.953 47.367,289.007 42.686,281.649 
				94.775,283.085 55.295,289.915 			"/>
			<polygon style="fill:#002E6B;" points="109.043,320.183 -4.103,366.051 -17.029,334.165 95.532,313.337 90.048,306.557 
				203.173,284.164 103.512,313.341 			"/>
			<polygon style="fill:#1781E2;" points="46.918,404.446 -18.316,445.952 -30.013,427.568 37.72,401.727 33.529,398.13 
				101.433,371.249 42.691,400.817 			"/>
		</g>
		<g style="clip-path:url(#SVGID_00000088107654976131285860000001251843396521617823_);">
			<polygon style="fill:#1781E2;" points="648.96,464.701 739.108,547.037 762.312,521.633 664.007,462.979 671.507,458.527 
				624.382,436.288 656.524,460.209 			"/>
			<polygon style="fill:#002E6B;" points="586.099,456.966 666.342,548.982 692.273,526.368 601.245,456.959 609.2,453.385 
				518.375,382.325 594.123,453.359 			"/>
			<polygon style="fill:#002255;" points="689.984,297.338 807.597,330.098 816.829,296.953 702.633,289.007 707.314,281.649 
				655.225,283.085 694.705,289.915 			"/>
			<polygon style="fill:#1781E2;" points="640.957,320.183 754.103,366.051 767.029,334.165 654.468,313.337 659.952,306.557 
				546.827,284.164 646.488,313.341 			"/>
			<polygon style="fill:#002E6B;" points="702.061,418.488 767.295,459.995 778.992,441.611 711.259,415.769 715.45,412.172 
				647.545,385.292 706.288,414.859 			"/>
		</g>
		<polygon style="clip-path:url(#SVGID_00000088107654976131285860000001251843396521617823_);fill:#002255;" points="
			428.264,439.113 464.616,555.666 497.462,545.421 442.128,445.211 450.848,445.146 421.359,402.185 437.061,439.046 		"/>
		<polygon style="clip-path:url(#SVGID_00000088107654976131285860000001251843396521617823_);fill:#002E6B;" points="
			378.251,465.187 378.936,587.275 413.342,587.082 389.726,475.072 398.084,477.56 382.446,427.853 386.683,467.695 		"/>
		<polygon style="clip-path:url(#SVGID_00000088107654976131285860000001251843396521617823_);fill:#1781E2;" points="
			514.412,483.485 568.241,593.068 599.123,577.898 529.048,487.38 537.655,485.976 501.915,448.056 523.094,482.067 		"/>
		<polygon style="clip-path:url(#SVGID_00000088107654976131285860000001251843396521617823_);fill:#002E6B;" points="
			263.607,482.822 242.583,544.723 225.139,538.798 256.104,485.9 251.437,485.749 267.798,463.148 258.899,482.668 		"/>
		<polygon style="clip-path:url(#SVGID_00000088107654976131285860000001251843396521617823_);fill:#1781E2;" points="
			330.512,473.762 319.709,554.514 296.952,551.47 322.078,479.332 316.335,480.27 340.741,407.289 324.718,474.707 		"/>
		<polygon style="clip-path:url(#SVGID_00000088107654976131285860000001251843396521617823_);fill:#1781E2;" points="
			205.21,477.501 176.263,530.75 161.257,522.592 197.871,479.133 193.631,478.26 229.968,434.023 200.933,476.62 		"/>
		<g style="clip-path:url(#SVGID_00000088107654976131285860000001251843396521617823_);">
			<polygon style="fill:#002255;" points="648.96,35.299 739.108,-47.037 762.312,-21.633 664.007,37.021 671.507,41.473 
				624.382,63.712 656.524,39.791 			"/>
			<polygon style="fill:#002E6B;" points="486.393,17.178 507.417,-44.723 524.861,-38.798 493.896,14.1 498.563,14.251 
				482.202,36.852 491.101,17.332 			"/>
			<polygon style="fill:#1781E2;" points="562.818,41.606 636.708,-55.585 664.098,-34.762 577.93,40.597 586.107,43.63 
				500.253,120.621 571.065,44.667 			"/>
			<polygon style="fill:#1781E2;" points="419.488,26.238 430.291,-54.514 453.048,-51.47 427.922,20.668 433.665,19.73 
				409.259,92.711 425.282,25.293 			"/>
			<polygon style="fill:#002255;" points="544.789,22.499 573.737,-30.75 588.743,-22.592 552.129,20.867 556.369,21.74 
				520.032,65.977 549.067,23.38 			"/>
			<polygon style="fill:#1781E2;" points="689.984,227.513 807.597,194.753 816.829,227.898 702.633,235.844 707.314,243.202 
				655.225,241.766 694.705,234.936 			"/>
			<polygon style="fill:#002E6B;" points="640.957,168.583 754.103,122.715 767.029,154.601 654.468,175.429 659.952,182.209 
				546.827,204.601 646.488,175.425 			"/>
			<polygon style="fill:#002255;" points="704.103,100.235 769.337,58.729 781.034,77.112 713.301,102.954 717.493,106.551 
				649.588,133.432 708.33,103.864 			"/>
		</g>
	</g>
</g>
</svg>
